<svg width="58" height="56" viewBox="0 0 58 56" fill="none" xmlns="http://www.w3.org/2000/svg">
<path fill-rule="evenodd" clip-rule="evenodd" d="M33.5631 0.928955C33.1678 0.928955 32.8007 1.01391 32.4618 1.12717C33.1819 1.60855 33.5772 2.24568 33.7748 2.96776C33.789 3.06687 33.8172 3.13766 33.8313 3.23676C33.8455 3.32172 33.8596 3.40667 33.8596 3.49162C33.916 4.73755 33.5348 4.89329 33.2666 5.62953C32.8572 6.57814 32.9701 7.59754 33.4642 8.41873C33.5066 8.51783 33.5631 8.6311 33.6337 8.73021C33.0972 5.14814 36.0761 4.61013 36.6267 3.49162C36.6691 2.51469 35.8643 1.86341 35.229 1.41034C34.6219 1.04222 34.0713 0.928955 33.5631 0.928955ZM38.0526 1.73598C37.9961 2.06162 38.0385 1.97667 38.0244 2.14657C38.0103 2.25984 38.0103 2.40143 37.9962 2.51469C37.968 2.62796 37.9397 2.74122 37.8974 2.85449C37.8692 2.96776 37.8268 3.08103 37.7844 3.19429C37.7279 3.30756 37.6856 3.40667 37.6291 3.51993C37.5868 3.57659 37.5585 3.6332 37.5162 3.68983C37.488 3.73231 37.4597 3.77478 37.4315 3.81726C37.3609 3.91637 37.2903 4.01548 37.2197 4.10042C37.135 4.18538 37.0644 4.28448 36.9656 4.35528V4.36945C36.8809 4.44025 36.7962 4.5252 36.6973 4.59599C36.4009 4.82252 36.062 4.99242 35.7514 5.2048C35.6526 5.27559 35.5538 5.33222 35.4691 5.41717C35.3702 5.48796 35.2855 5.55875 35.2008 5.6437C35.102 5.72865 35.0314 5.81361 34.9467 5.91272C34.8761 5.99767 34.7914 6.09677 34.7349 6.19588C34.6643 6.29499 34.5937 6.3941 34.5373 6.49321C34.4808 6.60647 34.4384 6.70558 34.382 6.81885C34.3396 6.93211 34.2972 7.03122 34.269 7.14449C34.2267 7.27191 34.1984 7.38518 34.1702 7.49845C34.1561 7.55511 34.1561 7.62587 34.142 7.68251C34.1278 7.73916 34.1278 7.79577 34.1138 7.85241C34.1138 7.96567 34.0996 8.0931 34.0996 8.20636C34.0996 8.29132 34.0996 8.37627 34.1138 8.46122C34.1138 8.57448 34.1279 8.68775 34.1561 8.81517C34.1702 8.92844 34.1985 9.04171 34.2267 9.15498C34.2691 9.26824 34.2973 9.38151 34.3396 9.49477C34.3679 9.56557 34.4102 9.63636 34.4385 9.69299L31.1913 8.4329C30.6407 8.27716 30.1042 8.13558 29.5536 8.00815C29.2571 7.93736 28.9606 7.86657 28.6642 7.79577C27.8171 7.62587 26.9559 7.49845 26.0947 7.4135C26.0664 7.4135 26.0523 7.39932 26.0241 7.39932C25.177 7.31437 24.344 7.2719 23.4969 7.2719C22.8757 7.2719 22.2545 7.30019 21.6474 7.34269C20.7862 7.39935 19.925 7.51259 19.0638 7.65417C18.852 7.68247 18.6403 7.72497 18.4285 7.76744C17.9908 7.85239 17.5673 7.9515 17.1579 8.05061C16.9461 8.10726 16.7343 8.16388 16.5225 8.22051C16.3108 8.30545 16.1131 8.40457 15.9155 8.48952C15.7602 8.56031 15.6049 8.6311 15.4496 8.70189C15.4213 8.71607 15.3931 8.71607 15.379 8.73019C15.2378 8.80098 15.1107 8.85761 14.9837 8.9284C14.9413 8.94258 14.9131 8.9567 14.8848 8.97088C14.7295 9.04167 14.5742 9.12662 14.4472 9.19741C14.3483 9.23989 14.2495 9.29652 14.1648 9.339C14.1225 9.36729 14.066 9.39565 14.0377 9.40979C13.9107 9.48058 13.7836 9.55137 13.6707 9.62217C13.5436 9.69296 13.4307 9.76374 13.3318 9.83453C13.233 9.90533 13.1342 9.96196 13.0495 10.0327C13.0353 10.0469 13.0213 10.0469 13.0071 10.061C12.9224 10.1177 12.8236 10.1885 12.7389 10.2593C12.7389 10.2593 12.7247 10.2734 12.7107 10.2876C12.6401 10.3442 12.5695 10.4008 12.4989 10.4575C12.4707 10.4716 12.4424 10.4999 12.4142 10.5141C12.3436 10.5708 12.273 10.6415 12.2024 10.6982C12.1883 10.7265 12.1601 10.7407 12.1459 10.7548C12.0612 10.8398 11.9765 10.9106 11.8918 10.9955C11.8776 10.9955 11.8776 11.0097 11.8636 11.0238C11.7789 11.0946 11.6941 11.1796 11.6094 11.2645C11.5953 11.2787 11.5953 11.2928 11.5812 11.2928C11.5106 11.3636 11.44 11.4344 11.3695 11.5193C11.3412 11.5476 11.2989 11.576 11.2706 11.6043C11.2 11.6892 11.1153 11.7742 11.0306 11.8591C11.0165 11.8874 10.9883 11.9016 10.9741 11.9299C10.8612 12.0432 10.7624 12.1565 10.6494 12.2697C10.6353 12.2839 10.6212 12.298 10.6071 12.3122C10.3812 12.5529 10.1412 12.7936 9.88703 13.006C9.6329 13.2325 9.36466 13.4449 9.09641 13.6289C8.81405 13.8272 8.5458 13.997 8.24932 14.1669C7.96696 14.3227 7.67047 14.4643 7.35988 14.5917C7.06339 14.7191 6.7528 14.8324 6.4422 14.9315C5.84923 15.0589 5.24215 15.2996 4.71978 15.3421C4.60684 15.3421 4.47977 15.3704 4.36683 15.3846C4.23976 15.4129 4.12682 15.4412 4.01388 15.4695C3.90093 15.512 3.78798 15.5545 3.67504 15.5969C3.56209 15.6394 3.44915 15.696 3.33621 15.7527C3.23738 15.8235 3.12443 15.8801 3.0256 15.9509C2.92678 16.0217 2.82795 16.1066 2.74324 16.1916C2.64442 16.2624 2.54559 16.3615 2.46088 16.4464C2.37617 16.5456 2.29146 16.6305 2.22087 16.7296C2.15028 16.8429 2.06557 16.942 2.00909 17.0553C1.9385 17.1544 1.86792 17.2676 1.81144 17.3809C1.75494 17.5083 1.6985 17.6216 1.65614 17.749C1.61379 17.8623 1.57143 17.9897 1.52908 18.1171C1.50086 18.2304 1.47258 18.3437 1.45849 18.4569C1.45849 18.4711 1.44435 18.4852 1.44435 18.4994C1.41613 18.6268 1.41613 18.7967 1.40199 18.8817C1.38785 18.9808 1.37378 19.0657 1.37378 19.1648C1.37378 19.2215 1.37378 19.2923 1.38792 19.3489C1.40206 19.448 1.41613 19.533 1.44441 19.6179C1.47263 19.7029 1.50091 19.7878 1.54324 19.8728V19.8869C1.58559 19.9719 1.64207 20.0568 1.69854 20.1418C1.75503 20.2267 1.81149 20.3117 1.88208 20.3967C1.95266 20.4674 2.03737 20.5524 2.12208 20.6232C2.20679 20.7081 2.2915 20.7789 2.39033 20.8497C2.72916 21.147 2.81387 21.2461 3.25154 21.4727C3.32212 21.5152 3.39272 21.5435 3.47743 21.5859C3.49157 21.5859 3.50564 21.6001 3.51978 21.6001C3.51978 21.6284 3.51979 21.6426 3.53393 21.6709C3.54807 21.7842 3.57628 21.8974 3.60452 22.0107C3.63273 22.1381 3.67511 22.2514 3.71747 22.3505C3.75982 22.4355 3.78806 22.5204 3.83041 22.6054C3.84455 22.6337 3.85863 22.662 3.87277 22.6762C3.92926 22.7894 3.98571 22.8885 4.04218 22.9876C4.11277 23.0868 4.18336 23.1859 4.25395 23.285C4.32454 23.3699 4.40925 23.469 4.49396 23.554C4.57867 23.6389 4.66338 23.7097 4.76221 23.7947C4.76221 23.7947 4.77635 23.8089 4.79042 23.8089C4.87513 23.8797 4.95984 23.9505 5.04455 24.0071C5.14338 24.0779 5.24221 24.1345 5.35515 24.1911C5.45398 24.2478 5.56692 24.3044 5.67987 24.3469C5.76458 24.3894 5.8634 24.4177 5.96223 24.446C5.97637 24.4602 5.99044 24.4602 6.01873 24.4743C6.07522 24.4885 6.14578 24.5026 6.20226 24.5168C6.1599 25.2813 6.14576 26.0034 6.25875 26.2582C6.38581 26.5414 7.00701 25.6777 7.62821 24.6867C7.5435 25.6636 7.48703 26.8104 7.62821 27.1502C7.78351 27.5042 8.6306 26.3998 9.36475 25.1822C19.3745 22.8602 28.509 29.7978 29.469 39.5954C29.2855 38.0663 27.4077 37.2168 26.5465 37.4292C26.123 38.4769 25.403 39.8219 24.2453 40.6573C24.3441 39.7228 24.3018 38.7601 24.1041 37.8256C23.7935 39.1282 23.1864 40.3458 22.3534 41.3935C21.0122 41.4926 19.671 40.8413 18.9651 39.8644C18.9086 39.8219 18.8945 39.737 18.8521 39.6804C18.8098 39.5812 18.7674 39.4821 18.7392 39.383C18.6968 39.2839 18.6686 39.1848 18.6545 39.0857C18.6403 38.9866 18.6403 38.8875 18.6403 38.7742C18.6403 38.7034 18.6403 38.6326 18.6403 38.5618C18.6545 38.4627 18.6827 38.3636 18.7109 38.2645C18.7391 38.1654 18.7674 38.0663 18.8098 37.9672C18.8663 37.8681 18.9086 37.769 18.9792 37.6699C19.2192 36.9903 19.2192 36.4381 18.7815 36.1124C18.6968 36.0558 18.6121 36.0133 18.5133 35.9709C18.4568 35.9567 18.3862 35.9284 18.3298 35.9142C18.2874 35.9 18.2592 35.8859 18.2168 35.8717C18.118 35.8434 18.0191 35.8151 17.9203 35.8009C17.8215 35.7726 17.7227 35.7585 17.6238 35.7585C17.525 35.7443 17.4121 35.7302 17.3132 35.7302C17.2427 35.7302 17.1721 35.7443 17.1015 35.7443C16.9885 35.7443 16.8897 35.7585 16.7909 35.7868C16.692 35.801 16.5932 35.8151 16.4944 35.8435C16.3956 35.8718 16.2967 35.9001 16.1979 35.9426C16.0991 35.9851 16.0144 36.0275 15.9155 36.07C15.8308 36.1125 15.7461 36.1691 15.6473 36.2116C12.3578 38.3637 14.3202 43.404 16.565 44.8623C15.7179 45.0181 14.8567 45.2022 14.6167 45.3862C14.6025 45.4004 14.5885 45.4145 14.5885 45.4145C15.1955 45.7826 15.8309 46.0941 16.4944 46.3631C17.398 46.6604 18.358 46.9294 18.7816 47.0427V47.0569C19.9534 47.2976 21.1393 47.3825 22.3393 47.3117C28.5937 46.8728 33.7186 42.1015 34.6504 35.8152C34.6786 35.9426 34.7069 36.0558 34.7351 36.1833C34.7774 36.4381 34.8339 36.7071 34.8621 36.9761V36.9903C34.8903 37.1178 34.9045 37.2452 34.9186 37.3585V37.4151C34.9328 37.5425 34.9468 37.67 34.9468 37.7832C34.961 37.939 34.9751 38.0947 34.9751 38.2505V38.477C34.9751 38.5478 34.9892 38.6327 34.9892 38.7035C34.9892 38.7885 34.9751 38.8734 34.9751 38.9584V39.1566C34.9751 39.2557 34.9609 39.3406 34.9609 39.4398C34.9609 39.4964 34.9609 39.553 34.9468 39.6238C34.9468 39.7229 34.9326 39.822 34.9326 39.9353C34.9185 39.9778 34.9185 40.0202 34.9185 40.0627C34.9043 40.176 34.8903 40.2751 34.8761 40.3884C34.8761 40.4308 34.8761 40.4733 34.862 40.5158C34.8478 40.6574 34.8196 40.7848 34.8055 40.9264V40.9406V40.9548C34.7773 41.0822 34.749 41.2238 34.7208 41.3512V41.3937C34.6926 41.5211 34.6643 41.6485 34.6361 41.7759C34.6361 41.7901 34.6219 41.8184 34.6219 41.8326C34.5937 41.96 34.5654 42.0874 34.5231 42.2149V42.2573C34.4808 42.3989 34.4384 42.5263 34.4102 42.6538C34.396 42.6679 34.396 42.6821 34.396 42.6821C34.3537 42.8237 34.3113 42.9652 34.269 43.1068C34.2125 43.2484 34.1701 43.3758 34.1137 43.5174C34.0572 43.659 34.0148 43.8006 33.9584 43.928C33.9019 44.0696 33.8454 44.197 33.7889 44.3386H33.7748C33.7183 44.466 33.6618 44.6076 33.5912 44.735C33.5771 44.7775 33.563 44.8058 33.5489 44.8341C33.5348 44.8483 33.5348 44.8624 33.5207 44.8766C32.603 46.7314 31.2477 48.3596 29.5535 49.6338C29.4405 49.7046 29.3276 49.7896 29.2146 49.8745C29.1864 49.9028 29.1441 49.917 29.1158 49.9453C29.017 50.0161 28.9182 50.0869 28.8052 50.1577L28.8476 50.2426H28.8617C29.0594 50.2143 29.257 50.186 29.4547 50.1577H29.4688C29.8359 50.101 30.203 50.0302 30.57 49.9595C30.6688 49.9453 30.7818 49.917 30.8806 49.8887C30.9512 49.8745 31.0077 49.8604 31.0783 49.8462C31.1771 49.832 31.2759 49.8037 31.3748 49.7895C31.4595 49.7612 31.5442 49.7471 31.6289 49.7187C33.0407 49.3789 34.4102 48.9117 35.7231 48.3595C33.4784 51.4319 30.4712 53.9096 26.9558 55.5378C28.5794 55.4246 30.203 55.1555 31.7701 54.7025C37.4597 53.0176 42.2457 49.1807 45.1117 44.0129C44.5329 47.2835 43.234 50.3983 41.3139 53.1167C42.6834 52.2106 43.9399 51.1629 45.0835 49.9736C48.246 46.6605 50.3213 42.4555 51.0272 37.939C51.5072 40.176 51.6484 42.4838 51.4367 44.7633C61.63 30.5059 52.2837 15.7246 48.373 11.831C48.3589 11.8027 48.3448 11.7885 48.3448 11.7602C48.3306 11.7744 48.3306 11.7744 48.3306 11.7885C48.3306 11.7743 48.3306 11.7743 48.3165 11.7602C48.3165 11.9301 48.3024 12.1 48.2883 12.2699C48.2459 12.5956 48.2036 12.907 48.1471 13.2185C48.0765 13.53 47.9918 13.8415 47.9071 14.153C47.8083 14.4503 47.6953 14.7618 47.5683 15.0591C47.4412 15.3423 47.3 15.6396 47.1447 15.9228C46.9894 16.1918 46.82 16.4749 46.6365 16.7298C46.4529 16.9988 46.2553 17.2537 46.0576 17.4943C45.8458 17.7492 45.62 17.9757 45.3941 18.2023C45.2529 18.3297 45.1258 18.443 44.9846 18.5562C44.8717 18.6553 44.7729 18.7403 44.6599 18.8394C44.4058 19.0376 44.1517 19.2217 43.8693 19.3916C43.6011 19.5615 43.3187 19.7314 43.0363 19.8729C42.7399 20.0145 42.4434 20.142 42.1469 20.2694C41.8504 20.3826 41.5398 20.4818 41.2292 20.5667C40.9186 20.6517 40.5939 20.7224 40.2833 20.7791C39.9586 20.8357 39.6339 20.864 39.3233 20.8923C39.0974 20.9065 38.8715 20.9206 38.6456 20.9206C38.3209 20.9206 37.9962 20.8923 37.6856 20.864C37.3609 20.8357 37.0361 20.7932 36.7255 20.7224C36.4008 20.6657 36.0902 20.5808 35.7796 20.4817H35.7655C36.0761 20.4534 36.3867 20.4251 36.6973 20.3684C37.022 20.3118 37.3326 20.241 37.6432 20.1561C37.9538 20.0711 38.2644 19.972 38.5609 19.8587C38.8715 19.7455 39.1679 19.6039 39.4503 19.4623C39.7468 19.3207 40.015 19.165 40.2974 18.9951C40.5656 18.811 40.8339 18.627 41.088 18.4287C41.3421 18.2305 41.5821 18.0182 41.808 17.7916C42.0481 17.5792 42.2598 17.3386 42.4716 17.0979C42.6834 16.843 42.881 16.5882 43.0646 16.3333C43.0928 16.2908 43.1211 16.2342 43.1493 16.1917C43.2905 15.9652 43.4316 15.7387 43.5587 15.5121C43.714 15.229 43.8552 14.9458 43.9822 14.6485C44.1093 14.3511 44.2222 14.0538 44.3211 13.7423C44.4199 13.445 44.4905 13.1335 44.5611 12.822C44.6176 12.4964 44.674 12.1849 44.7023 11.8734C44.7305 11.5478 44.7588 11.2221 44.7588 10.9107C44.7588 10.6841 44.7446 10.4576 44.7305 10.2311C44.7023 9.90543 44.66 9.59394 44.6176 9.28246C44.5611 8.95682 44.4905 8.64534 44.4058 8.33385C44.307 8.03653 44.2082 7.72504 44.0952 7.42772C43.9823 7.13039 43.8411 6.83306 43.6999 6.54989C43.5446 6.26673 43.3893 5.98356 43.2199 5.71456C43.0364 5.44555 42.8528 5.1907 42.6552 4.93584C42.4434 4.69515 42.2316 4.45446 42.0057 4.21377C41.8928 4.10051 41.7657 3.97308 41.6387 3.85982C41.0034 3.36427 40.3398 2.89704 39.6762 2.47229C39.5774 2.41564 39.4927 2.37318 39.3939 2.33071C38.928 2.03339 38.4903 1.87756 38.0526 1.73598Z" fill="black"/>
</svg>
