<svg width="24" height="36" viewBox="0 0 24 36" fill="none" xmlns="http://www.w3.org/2000/svg">
<path d="M23.5294 12.2117C23.5294 16.8818 20.7623 20.9082 16.7793 22.735C18.4612 21.3496 19.5322 19.248 19.5322 16.896C19.5322 12.7642 16.2259 9.40419 12.112 9.32043C12.0574 9.31667 12.0075 9.31667 11.9529 9.31667C11.8983 9.31667 11.8485 9.31667 11.7939 9.32043C10.2673 9.40325 9.05882 10.6663 9.05882 12.2108V26.6814C9.05882 31.4748 5.16988 35.3637 0.376465 35.3637V12.2117C0.376465 5.81925 5.56047 0.635254 11.9529 0.635254C18.3454 0.635254 23.5294 5.81925 23.5294 12.2117Z" fill="white"/>
</svg>
